<svg xmlns="http://www.w3.org/2000/svg"  viewBox="0 0 50 50" width="50px" height="50px"><path d="M 29.167969 2 L 7 2 L 7 48 L 43 48 L 43 15.433594 Z M 27 32 C 24.730469 32 23.109375 30.964844 22 29.621094 L 22 37 C 22 37.550781 21.554688 38 21 38 C 20.445313 38 20 37.550781 20 37 L 20 25 C 20 24.476563 20.402344 24.042969 20.925781 24.003906 C 21.4375 23.960938 21.910156 24.335938 21.988281 24.851563 C 22.019531 25.058594 22.835938 30 27 30 C 29.054688 30 31 28.054688 31 26 C 31 23.945313 29.054688 22 27 22 L 21 22 C 20.445313 22 20 21.550781 20 21 C 20 20.449219 20.445313 20 21 20 L 27 20 C 30.140625 20 33 22.859375 33 26 C 33 29.140625 30.140625 32 27 32 Z M 29 16 L 29 4 L 41 16 Z"/></svg>